<svg width="20" height="20" viewBox="0 0 20 20" fill="none" xmlns="http://www.w3.org/2000/svg">
<path d="M12 13C12.2833 13 12.5292 12.8958 12.7375 12.6875C12.9458 12.4792 13.05 12.2333 13.05 11.95C13.05 11.6667 12.9458 11.4208 12.7375 11.2125C12.5292 11.0042 12.2833 10.9 12 10.9C11.7167 10.9 11.4708 11.0042 11.2625 11.2125C11.0542 11.4208 10.95 11.6667 10.95 11.95C10.95 12.2333 11.0542 12.4792 11.2625 12.6875C11.4708 12.8958 11.7167 13 12 13ZM11.25 9.8H12.75C12.75 9.31667 12.8 8.9625 12.9 8.7375C13 8.5125 13.2333 8.21667 13.6 7.85C14.1 7.35 14.4333 6.94583 14.6 6.6375C14.7667 6.32917 14.85 5.96667 14.85 5.55C14.85 4.8 14.5875 4.1875 14.0625 3.7125C13.5375 3.2375 12.85 3 12 3C11.3167 3 10.7208 3.19167 10.2125 3.575C9.70417 3.95833 9.35 4.46667 9.15 5.1L10.5 5.65C10.65 5.23333 10.8542 4.92083 11.1125 4.7125C11.3708 4.50417 11.6667 4.4 12 4.4C12.4 4.4 12.725 4.5125 12.975 4.7375C13.225 4.9625 13.35 5.26667 13.35 5.65C13.35 5.88333 13.2833 6.10417 13.15 6.3125C13.0167 6.52083 12.7833 6.78333 12.45 7.1C11.9 7.58333 11.5625 7.9625 11.4375 8.2375C11.3125 8.5125 11.25 9.03333 11.25 9.8ZM6 16C5.45 16 4.97917 15.8042 4.5875 15.4125C4.19583 15.0208 4 14.55 4 14V2C4 1.45 4.19583 0.979167 4.5875 0.5875C4.97917 0.195833 5.45 0 6 0H18C18.55 0 19.0208 0.195833 19.4125 0.5875C19.8042 0.979167 20 1.45 20 2V14C20 14.55 19.8042 15.0208 19.4125 15.4125C19.0208 15.8042 18.55 16 18 16H6ZM6 14H18V2H6V14ZM2 20C1.45 20 0.979167 19.8042 0.5875 19.4125C0.195833 19.0208 0 18.55 0 18V4H2V18H16V20H2Z" fill="#5B5757"/>
</svg>
