<svg width="20" height="18" viewBox="0 0 20 18" fill="none" xmlns="http://www.w3.org/2000/svg">
<path d="M1.9998 18V5.1L0.0498047 0.85L1.8498 0L4.1998 5.05H15.7998L18.1498 0L19.9498 0.85L17.9998 5.1V18H1.9998ZM7.9998 11H11.9998C12.2831 11 12.5206 10.9042 12.7123 10.7125C12.904 10.5208 12.9998 10.2833 12.9998 10C12.9998 9.71667 12.904 9.47917 12.7123 9.2875C12.5206 9.09583 12.2831 9 11.9998 9H7.9998C7.71647 9 7.47897 9.09583 7.2873 9.2875C7.09564 9.47917 6.9998 9.71667 6.9998 10C6.9998 10.2833 7.09564 10.5208 7.2873 10.7125C7.47897 10.9042 7.71647 11 7.9998 11ZM3.9998 16H15.9998V7.05H3.9998V16Z" fill="#5B5757"/>
</svg>
